<?xml version="1.0" standalone="no"?><!DOCTYPE svg PUBLIC "-//W3C//DTD SVG 1.1//EN" "http://www.w3.org/Graphics/SVG/1.1/DTD/svg11.dtd"><svg t="1744272736738" class="icon" viewBox="0 0 1024 1024" version="1.1" xmlns="http://www.w3.org/2000/svg" p-id="4903" xmlns:xlink="http://www.w3.org/1999/xlink" width="256" height="256"><path d="M743.424 233.472h-32.768V200.704c0-18.432-14.336-32.768-32.768-32.768-18.432 0-32.768 14.336-32.768 32.768v32.768h-264.192V200.704c0-18.432-14.336-32.768-32.768-32.768-18.432 0-32.768 14.336-32.768 32.768v32.768h-32.768c-36.864 0-65.536 28.672-65.536 65.536V757.76c0 36.864 30.72 65.536 65.536 65.536h462.848c36.864 0 65.536-28.672 65.536-65.536V299.008c-2.048-36.864-32.768-65.536-67.584-65.536z m0 524.288h-462.848V397.312h462.848V757.76zM512 462.848h-165.888v163.84h165.888v-163.84z" fill="#707070" p-id="4904"></path></svg>