<?xml version="1.0" standalone="no"?><!DOCTYPE svg PUBLIC "-//W3C//DTD SVG 1.1//EN" "http://www.w3.org/Graphics/SVG/1.1/DTD/svg11.dtd"><svg t="1744272982324" class="icon" viewBox="0 0 1024 1024" version="1.1" xmlns="http://www.w3.org/2000/svg" p-id="8391" xmlns:xlink="http://www.w3.org/1999/xlink" width="256" height="256"><path d="M827.2 691.2l-180.8-97.6c38.4-41.6 60.8-97.6 60.8-155.2v-94.4C705.6 224 603.2 128 476.8 128s-230.4 96-230.4 214.4v94.4c0 57.6 22.4 113.6 60.8 155.2L124.8 691.2c-20.8 11.2-33.6 32-33.6 54.4v88c0 35.2 28.8 62.4 62.4 62.4h643.2c35.2 0 62.4-28.8 62.4-62.4v-88c1.6-22.4-11.2-43.2-32-54.4zM796.8 832h-640v-84.8l222.4-120c9.6-4.8 16-14.4 16-25.6 0-11.2-4.8-22.4-12.8-28.8-44.8-30.4-70.4-81.6-70.4-136v-94.4c0-83.2 75.2-150.4 166.4-150.4s166.4 67.2 166.4 150.4v94.4c0 54.4-25.6 104-70.4 136-9.6 6.4-14.4 17.6-12.8 28.8s6.4 20.8 16 25.6l220.8 118.4V832z" fill="#707070" p-id="8392"></path><path d="M900.8 516.8h-48v-48c0-17.6-14.4-32-32-32s-32 14.4-32 32v48h-48c-17.6 0-32 14.4-32 32s14.4 32 32 32h48v48c0 17.6 14.4 32 32 32s32-14.4 32-32v-48h48c17.6 0 32-14.4 32-32s-14.4-32-32-32z" fill="#707070" p-id="8393"></path></svg>